# xmcd
#
# Track frame offsets: 
#        150
#        11895
#        22702
#        31569
#        44550
#        54802
#        64170
#        78285
#        91032
#        101775
#
# Disc length: 1523 seconds
#
# Revision: 0
# Processed by: cddbd v1.4PL0 Copyright (c) Steve Scherf et al.
# Submitted via: ExactAudioCopy v0.90b3
#
DISCID=6805f10a
DTITLE=George Jones - Walk Through The World With Me
DYEAR=1900
DGENRE=Country
TTITLE0=White Lightnin'
TTITLE1=Tender Years
TTITLE2=Love Bug
TTITLE3=Things Have Gone To Pieces
TTITLE4=Walk Through This World With Me
TTITLE5=The Race Is On
TTITLE6=A Good Year For The Roses
TTITLE7=A Lifetime Of Regret
TTITLE8=Let A Little Lovin' Come In
TTITLE9=The Selfishness In Man
EXTD=
EXTT0=
EXTT1=
EXTT2=
EXTT3=
EXTT4=
EXTT5=
EXTT6=
EXTT7=
EXTT8=
EXTT9=
PLAYORDER=
